<?xml version="1.0" standalone="no"?>
<!DOCTYPE svg PUBLIC "-//W3C//DTD SVG 20010904//EN"
 "http://www.w3.org/TR/2001/REC-SVG-20010904/DTD/svg10.dtd">
<svg version="1.0" xmlns="http://www.w3.org/2000/svg"
 width="168.000000pt" height="168.000000pt" viewBox="0 0 168.000000 168.000000"
 preserveAspectRatio="xMidYMid meet">
<metadata>
Created by potrace 1.14, written by Peter Selinger 2001-2017
</metadata>
<g transform="translate(0.000000,168.000000) scale(0.100000,-0.100000)"
fill="#000000" stroke="none">
<path d="M460 1548 l0 -48 -48 0 -48 0 1 -42 0 -43 -47 -3 -48 -3 0 -50 0 -49
-50 0 -50 0 0 -189 0 -189 -40 3 c-22 2 -43 -1 -46 -6 -4 -7 -7 -275 -5 -426
l1 -43 45 0 45 0 0 -140 0 -140 50 0 50 0 0 -47 0 -48 568 0 567 0 1 25 c4 75
1 70 49 70 l45 0 0 140 0 140 45 0 45 0 0 239 0 238 -42 -1 -43 -1 -3 188 -2
187 -45 0 c-48 0 -48 0 -47 63 1 24 -3 37 -11 36 -7 -1 -29 -1 -49 0 l-38 1 0
44 0 45 -47 3 -48 3 1 43 c2 33 -2 42 -15 43 -9 1 -179 2 -378 3 l-363 1 0
-47z"/>
</g>
</svg>
